<svg
  viewBox="-512 -512 1024 1024"
  xmlns="http://www.w3.org/2000/svg"
  xmlns:xlink="http://www.w3.org/1999/xlink"
>
  <defs>
    <mask id="squircle">
      <path fill="#fff" d="
        M-512,0
        C-512,-512 -512,-512 0,-512
        C512,-512 512,-512 512,0
        C512,512 512,512 0,512
        C-512,512 -512,512 -512,0
        Z"/>
    </mask>
  </defs>
  <path mask="url(#squircle)" fill="#fff" d="
    M-614.4,-614.4
    L614.4,-614.4
    L614.4,-204.8
    L-614.4,-204.8
    L-614.4,-614.4
    Z" />
  <path mask="url(#squircle)" fill="#bfbfbf" d="
    M-614.4,-307.2
    L614.4,-307.2
    L614.4,0
    L-614.4,0
    L-614.4,-307.2
    Z" />
  <path mask="url(#squircle)" fill="#808080" d="
    M-614.4,-102.4
    L614.4,-102.4
    L614.4,204.8
    L-614.4,204.8
    L-614.4,-102.4
    Z" />
  <path mask="url(#squircle)" fill="#404040" d="
    M-614.4,102.4
    L614.4,102.4
    L614.4,409.6
    L-614.4,409.6
    L-614.4,102.4
    Z" />
  <path mask="url(#squircle)" fill="#000" d="
    M-614.4,307.2
    L614.4,307.2
    L614.4,614.4
    L-614.4,614.4
    L-614.4,307.2
    Z" />
</svg>
